# xmcd CD database file
#
# Track frame offsets:
#	150
#	22547
#	48232
#	76332
#	94127
#	118477
#	139905
#	159625
#
# Disc length: 2432 seconds
#
# Revision: 0
# Processed by: cddbd v1.4PL0 Copyright (c) Steve Scherf et al.
# Submitted via: CDex 1.50beta10
#
DISCID=5f097e08
DTITLE=Red Garland - The Nearness of You
DYEAR=1961
DGENRE=Jazz
TTITLE0=Why Was I Born
TTITLE1=The Nearness of You
TTITLE2=Where or When
TTITLE3=Long Ago and Far Away
TTITLE4=I Got It Bad and That Ain't Go
TTITLE5=Don't Worry About Me
TTITLE6=Lush Life
TTITLE7=All Alone
EXTD=YEAR: 1961
EXTT0=
EXTT1=
EXTT2=
EXTT3=
EXTT4=
EXTT5=
EXTT6=
EXTT7=
PLAYORDER=
